<?xml version="1.0" encoding="UTF-8" standalone="no"?>
<svg
   xmlns:dc="http://purl.org/dc/elements/1.1/"
   xmlns:cc="http://creativecommons.org/ns#"
   xmlns:rdf="http://www.w3.org/1999/02/22-rdf-syntax-ns#"
   xmlns:svg="http://www.w3.org/2000/svg"
   xmlns="http://www.w3.org/2000/svg"
   xmlns:sodipodi="http://sodipodi.sourceforge.net/DTD/sodipodi-0.dtd"
   xmlns:inkscape="http://www.inkscape.org/namespaces/inkscape"
   version="1.1"
   id="svg2"
   xml:space="preserve"
   width="1333.3333"
   height="1066.6667"
   viewBox="0 0 1333.3333 1066.6667"
   sodipodi:docname="10012019-19.eps"><metadata
     id="metadata8"><rdf:RDF><cc:Work
         rdf:about=""><dc:format>image/svg+xml</dc:format><dc:type
           rdf:resource="http://purl.org/dc/dcmitype/StillImage" /></cc:Work></rdf:RDF></metadata><defs
     id="defs6" /><sodipodi:namedview
     pagecolor="#ffffff"
     bordercolor="#666666"
     borderopacity="1"
     objecttolerance="10"
     gridtolerance="10"
     guidetolerance="10"
     inkscape:pageopacity="0"
     inkscape:pageshadow="2"
     inkscape:window-width="640"
     inkscape:window-height="480"
     id="namedview4" /><g
     id="g10"
     inkscape:groupmode="layer"
     inkscape:label="ink_ext_XXXXXX"
     transform="matrix(1.3333333,0,0,-1.3333333,0,1066.6667)"><g
       id="g12"
       transform="scale(0.1)"><path
         d="m 4727.17,3170.81 c 0,0 -236.66,147.61 -218.72,341.42 0,0 92.32,-187.86 211.76,-186.61 0,0 -211.76,114.65 -200.6,363.22 0,0 85.24,-254.4 234.32,-282.75 0,0 -240.43,142.34 -145.23,526.41 95.2,384.07 184.82,665.05 466.01,1089.62 192.97,291.38 277.73,542.13 314.34,719.65 -125,29.17 -255.17,44.88 -389.05,44.88 -942.45,0 -1706.45,-764 -1706.45,-1706.45 0,-803.09 554.82,-1476.47 1302.04,-1658.08 l 131.58,748.69"
         style="fill:#211c1d;fill-opacity:1;fill-rule:nonzero;stroke:none"
         id="path14" /><path
         d="m 4828.68,3404.32 c 5.59,351.84 179.88,742.22 372.46,1217.66 192.59,475.45 257.85,947.11 257.85,947.11 0,0 -151.28,-593.7 -395.38,-1112.77 -337.91,-718.52 -234.93,-1052 -234.93,-1052"
         style="fill:#211c1d;fill-opacity:1;fill-rule:nonzero;stroke:none"
         id="path16" /><path
         d="m 5751.47,5612.58 c -151.61,265.06 -337.18,409.17 -337.18,409.17 0,0 507.1,-727.16 178.97,-1305.35 l -368.09,-213.16 351.58,130.01 c 0,0 -31.44,-105.72 -166.23,-306.04 C 5275.7,4126.89 5251.83,3877.6 5251.83,3877.6 l -341,-233.18 329.8,168.29 c 0,0 -18.64,-408.07 -243.42,-485.03 0,0 185.2,21.12 313.71,142.38 0,0 -109.16,-208.32 -394.97,-243.64 0,0 98.79,-41.19 266.9,46.18 0,0 -88.77,-146.87 -352.3,-146.87 L 4657.7,2267.12 4545.77,2138.65 v 0 l 173.32,72.74 51.87,177.71 c 74.92,-10.05 151.35,-15.35 229.04,-15.35 942.45,0 1706.45,764 1706.45,1706.45 0,672.75 -389.36,1254.48 -954.98,1532.38"
         style="fill:#50abe4;fill-opacity:1;fill-rule:nonzero;stroke:none"
         id="path18" /></g></g></svg>
